<mxfile host="drawio-plugin" modified="2022-02-14T09:59:20.340Z" agent="5.0 (Macintosh; Intel Mac OS X 12_0_1) AppleWebKit/537.36 (KHTML, like Gecko) Chrome/89.0.4389.114 Safari/537.36" etag="9y3FnLi38rW1yAavswsM" version="15.5.4" type="embed"><diagram id="27UEhvcbevQ5RNf_Fo5W" name="Status Quo"><mxGraphModel dx="1113" dy="530" grid="1" gridSize="10" guides="1" tooltips="1" connect="1" arrows="1" fold="1" page="1" pageScale="1" pageWidth="827" pageHeight="1169" math="0" shadow="0"><root><mxCell id="0"/><mxCell id="1" parent="0"/><mxCell id="93" value="Fachbereich &lt;br&gt;Controlling" style="ellipse;whiteSpace=wrap;html=1;verticalAlign=top;" vertex="1" parent="1"><mxGeometry x="544" y="4.5" width="180" height="101" as="geometry"/></mxCell><mxCell id="95" value="Domain Team&lt;br&gt;Controlling" style="ellipse;whiteSpace=wrap;html=1;verticalAlign=middle;" vertex="1" parent="1"><mxGeometry x="500" y="149" width="217" height="111" as="geometry"/></mxCell><mxCell id="24" value="Central &lt;br&gt;Data Team" style="ellipse;whiteSpace=wrap;html=1;" parent="1" vertex="1"><mxGeometry x="60" y="186" width="270" height="180" as="geometry"/></mxCell><mxCell id="27" value="Controlling" style="ellipse;whiteSpace=wrap;html=1;verticalAlign=top;" parent="1" vertex="1"><mxGeometry x="859" y="5.25" width="360" height="180" as="geometry"/></mxCell><mxCell id="41" value="" style="shape=singleArrow;whiteSpace=wrap;html=1;arrowWidth=0.5;arrowSize=0.29;" parent="1" vertex="1"><mxGeometry x="344" y="159.5" width="70" height="41" as="geometry"/></mxCell><mxCell id="57" value="" style="shape=umlActor;verticalLabelPosition=bottom;verticalAlign=top;html=1;outlineConnect=0;" parent="1" vertex="1"><mxGeometry x="250" y="211.5" width="20" height="30" as="geometry"/></mxCell><mxCell id="58" value="Data &lt;br&gt;Engineer" style="shape=umlActor;verticalLabelPosition=bottom;verticalAlign=top;html=1;outlineConnect=0;" parent="1" vertex="1"><mxGeometry x="260" y="221.5" width="20" height="30" as="geometry"/></mxCell><mxCell id="59" value="Fachbereich &lt;br&gt;Controlling" style="ellipse;whiteSpace=wrap;html=1;verticalAlign=top;" vertex="1" parent="1"><mxGeometry x="80" y="6" width="180" height="101" as="geometry"/></mxCell><mxCell id="64" value="" style="edgeStyle=orthogonalEdgeStyle;rounded=0;orthogonalLoop=1;jettySize=auto;html=1;exitX=0;exitY=0.5;exitDx=0;exitDy=0;exitPerimeter=0;entryX=0.5;entryY=1;entryDx=0;entryDy=0;" edge="1" parent="1" source="63" target="61"><mxGeometry relative="1" as="geometry"><Array as="points"><mxPoint x="143" y="294.5"/></Array></mxGeometry></mxCell><mxCell id="61" value="Report" style="rounded=0;whiteSpace=wrap;html=1;" vertex="1" parent="1"><mxGeometry x="100" y="161" width="86" height="40" as="geometry"/></mxCell><mxCell id="62" value="" style="endArrow=classic;html=1;rounded=0;dashed=1;exitX=0.5;exitY=0.5;exitDx=0;exitDy=0;exitPerimeter=0;" edge="1" parent="1" source="77" target="61"><mxGeometry width="50" height="50" relative="1" as="geometry"><mxPoint x="270" y="131.5" as="sourcePoint"/><mxPoint x="320" y="81.5" as="targetPoint"/></mxGeometry></mxCell><mxCell id="63" value="Central DWH" style="shape=cylinder3;whiteSpace=wrap;html=1;boundedLbl=1;backgroundOutline=1;size=15;" vertex="1" parent="1"><mxGeometry x="90" y="251.5" width="60" height="65" as="geometry"/></mxCell><mxCell id="66" value="" style="shape=umlActor;verticalLabelPosition=bottom;verticalAlign=top;html=1;outlineConnect=0;" vertex="1" parent="1"><mxGeometry x="1081" y="97.75" width="20" height="30" as="geometry"/></mxCell><mxCell id="67" value="Data Engineer" style="shape=umlActor;verticalLabelPosition=bottom;verticalAlign=top;html=1;outlineConnect=0;" vertex="1" parent="1"><mxGeometry x="1091" y="107.75" width="20" height="30" as="geometry"/></mxCell><mxCell id="68" value="Report" style="rounded=0;whiteSpace=wrap;html=1;" vertex="1" parent="1"><mxGeometry x="979" y="90.75" width="86" height="40" as="geometry"/></mxCell><mxCell id="70" value="Domain" style="ellipse;whiteSpace=wrap;html=1;" vertex="1" parent="1"><mxGeometry x="850" y="275.75" width="120" height="81" as="geometry"/></mxCell><mxCell id="71" value="Domain" style="ellipse;whiteSpace=wrap;html=1;" vertex="1" parent="1"><mxGeometry x="1050" y="275.75" width="120" height="81" as="geometry"/></mxCell><mxCell id="72" value="Data Product" style="rounded=0;whiteSpace=wrap;html=1;" vertex="1" parent="1"><mxGeometry x="894" y="260.75" width="86" height="40" as="geometry"/></mxCell><mxCell id="73" value="Data Product" style="rounded=0;whiteSpace=wrap;html=1;" vertex="1" parent="1"><mxGeometry x="1084" y="260.75" width="86" height="40" as="geometry"/></mxCell><mxCell id="74" value="" style="endArrow=classic;html=1;rounded=0;entryX=0.25;entryY=1;entryDx=0;entryDy=0;exitX=0.5;exitY=0;exitDx=0;exitDy=0;" edge="1" parent="1" source="72" target="68"><mxGeometry width="50" height="50" relative="1" as="geometry"><mxPoint x="809" y="220.75" as="sourcePoint"/><mxPoint x="859" y="170.75" as="targetPoint"/></mxGeometry></mxCell><mxCell id="75" value="" style="endArrow=classic;html=1;rounded=0;entryX=0.75;entryY=1;entryDx=0;entryDy=0;exitX=0.5;exitY=0;exitDx=0;exitDy=0;" edge="1" parent="1" source="73" target="68"><mxGeometry width="50" height="50" relative="1" as="geometry"><mxPoint x="924" y="250.75" as="sourcePoint"/><mxPoint x="961.5" y="130.75" as="targetPoint"/></mxGeometry></mxCell><mxCell id="77" value="Business" style="shape=umlActor;verticalLabelPosition=bottom;verticalAlign=top;html=1;outlineConnect=0;" vertex="1" parent="1"><mxGeometry x="150" y="51.5" width="20" height="30" as="geometry"/></mxCell><mxCell id="79" value="Business" style="shape=umlActor;verticalLabelPosition=bottom;verticalAlign=top;html=1;outlineConnect=0;" vertex="1" parent="1"><mxGeometry x="1024" y="26.25" width="20" height="30" as="geometry"/></mxCell><mxCell id="80" value="" style="endArrow=classic;html=1;rounded=0;dashed=1;entryX=0.5;entryY=0;entryDx=0;entryDy=0;" edge="1" parent="1" source="79" target="68"><mxGeometry width="50" height="50" relative="1" as="geometry"><mxPoint x="479" y="101.75" as="sourcePoint"/><mxPoint x="482.314606741573" y="160.75" as="targetPoint"/></mxGeometry></mxCell><mxCell id="82" value="" style="shape=umlActor;verticalLabelPosition=bottom;verticalAlign=top;html=1;outlineConnect=0;" vertex="1" parent="1"><mxGeometry x="656" y="190" width="20" height="30" as="geometry"/></mxCell><mxCell id="83" value="Data Engineer" style="shape=umlActor;verticalLabelPosition=bottom;verticalAlign=top;html=1;outlineConnect=0;" vertex="1" parent="1"><mxGeometry x="666" y="200" width="20" height="30" as="geometry"/></mxCell><mxCell id="85" value="Domain" style="ellipse;whiteSpace=wrap;html=1;" vertex="1" parent="1"><mxGeometry x="420" y="285" width="120" height="81" as="geometry"/></mxCell><mxCell id="86" value="Domain" style="ellipse;whiteSpace=wrap;html=1;" vertex="1" parent="1"><mxGeometry x="620" y="285" width="120" height="81" as="geometry"/></mxCell><mxCell id="87" value="Data Product" style="rounded=0;whiteSpace=wrap;html=1;" vertex="1" parent="1"><mxGeometry x="486" y="268.5" width="84" height="40" as="geometry"/></mxCell><mxCell id="88" value="Data Product" style="rounded=0;whiteSpace=wrap;html=1;" vertex="1" parent="1"><mxGeometry x="673" y="268.5" width="86" height="40" as="geometry"/></mxCell><mxCell id="89" value="" style="endArrow=classic;html=1;rounded=0;entryX=0.25;entryY=1;entryDx=0;entryDy=0;exitX=0.5;exitY=0;exitDx=0;exitDy=0;" edge="1" parent="1" source="87" target="84"><mxGeometry width="50" height="50" relative="1" as="geometry"><mxPoint x="404" y="290" as="sourcePoint"/><mxPoint x="454" y="240" as="targetPoint"/></mxGeometry></mxCell><mxCell id="90" value="" style="endArrow=classic;html=1;rounded=0;entryX=0.75;entryY=1;entryDx=0;entryDy=0;exitX=0.5;exitY=0;exitDx=0;exitDy=0;" edge="1" parent="1" source="88" target="84"><mxGeometry width="50" height="50" relative="1" as="geometry"><mxPoint x="519" y="320" as="sourcePoint"/><mxPoint x="556.5" y="200" as="targetPoint"/></mxGeometry></mxCell><mxCell id="92" value="" style="endArrow=classic;html=1;rounded=0;dashed=1;entryX=0.5;entryY=0;entryDx=0;entryDy=0;" edge="1" parent="1" source="94" target="84"><mxGeometry width="50" height="50" relative="1" as="geometry"><mxPoint x="476" y="150" as="sourcePoint"/><mxPoint x="-75.68539325842698" y="254.5" as="targetPoint"/></mxGeometry></mxCell><mxCell id="94" value="Business" style="shape=umlActor;verticalLabelPosition=bottom;verticalAlign=top;html=1;outlineConnect=0;" vertex="1" parent="1"><mxGeometry x="614" y="50" width="20" height="30" as="geometry"/></mxCell><mxCell id="84" value="Report" style="rounded=0;whiteSpace=wrap;html=1;" vertex="1" parent="1"><mxGeometry x="600" y="124.5" width="86" height="40" as="geometry"/></mxCell><mxCell id="96" value="Product Owner" style="shape=umlActor;verticalLabelPosition=bottom;verticalAlign=top;html=1;outlineConnect=0;" vertex="1" parent="1"><mxGeometry x="537" y="184.5" width="20" height="30" as="geometry"/></mxCell><mxCell id="97" value="" style="shape=singleArrow;whiteSpace=wrap;html=1;arrowWidth=0.5;arrowSize=0.29;" vertex="1" parent="1"><mxGeometry x="759" y="159.5" width="70" height="41" as="geometry"/></mxCell><mxCell id="98" value="Product Owner" style="shape=umlActor;verticalLabelPosition=bottom;verticalAlign=top;html=1;outlineConnect=0;" vertex="1" parent="1"><mxGeometry x="900" y="67.75" width="20" height="30" as="geometry"/></mxCell></root></mxGraphModel></diagram></mxfile>